<svg width="24" height="24" viewBox="0 0 24 24" fill="none" xmlns="http://www.w3.org/2000/svg">
<path d="M12 24C18.6274 24 24 18.6274 24 12C24 5.37258 18.6274 0 12 0C5.37258 0 0 5.37258 0 12C0 18.6274 5.37258 24 12 24Z" fill="#005DFF"/>
<path d="M8.9658 15.8716C7.60484 16.2058 6.52305 16.1968 6.2074 15.8472C5.89175 15.4976 6.21454 14.6552 7.03143 13.7045C7.39407 13.2893 7.79155 12.8947 8.22108 12.5235L7.34867 12C6.91562 12.38 6.51373 12.7824 6.14554 13.2048C4.6672 14.9234 4.88768 15.8716 5.33261 16.3649C5.71251 16.7864 6.35016 17 7.22812 17C7.81501 17 8.51135 16.9012 9.29811 16.7068C9.50431 16.6561 9.73431 16.592 10 16.5144L8.9658 15.8716Z" fill="white"/>
<path d="M18.7182 6.71247C18.0441 5.70465 16.3364 5.76786 14.0306 6.89049L14.3067 7.8351C14.7433 7.61854 15.192 7.43239 15.6503 7.27778C16.2077 7.09177 16.7172 6.99367 17.1232 6.99367C17.5513 6.99367 17.8487 7.09976 17.9828 7.30031C18.2495 7.69777 17.9768 8.65037 17.2899 9.72723C16.7718 10.5396 16.0377 11.4181 15.1655 12.2704C14.9381 12.4884 14.7041 12.7064 14.4687 12.9178L14.44 12.9433L15.3595 16.0292L12.965 14.1327L12.933 14.156C12.677 14.3442 12.4196 14.5237 12.1682 14.6908C11.5772 15.0858 10.9641 15.4401 10.3325 15.7517L11.2127 12.7943L8.73215 10.8324H11.7995L12.7463 7.65199L13.6939 10.8302H15.7983C16.089 10.5039 16.3576 10.1549 16.6018 9.78609H14.3893L13.5925 7.11357H11.8988L11.102 9.78609H8.52344L8 11.5416L10.0858 13.1932L9.28894 15.865L10.4405 16.7769L10.4692 16.7638C11.31 16.3656 12.1208 15.8962 12.8944 15.36L14.9648 17L16.3351 15.9152L15.5349 13.2266C17.67 11.2015 19.7751 8.29506 18.7182 6.71247Z" fill="white"/>
</svg>
