<svg xmlns="http://www.w3.org/2000/svg" fill="none" viewBox="0 0 48 48">
  <g clip-path="url(#a)">
    <path fill="#c0e6ff" d="M24 48c13.255 0 24-10.745 24-24S37.255 0 24 0 0 10.745 0 24s10.745 24 24 24"/>
    <path fill="#2263a7" fill-rule="evenodd" d="M27 26.1c-1.998.13-4.002.13-6 0-5.85-.3-10.2-1.35-10.2-2.55s4.5-2.25 10.2-2.4v3.9c1.998.135 4.002.135 6 0v-3.9c5.7.15 10.05 1.2 10.05 2.4s-4.35 2.25-10.2 2.55m0-5.4v-3.6h8.1v-5.4H12.9v5.4H21v3.6c-6.6.3-11.55 1.5-11.55 3.15 0 1.5 4.95 3 11.55 3.15v11.4h6V27c6.45-.3 11.4-1.5 11.4-3 0-1.65-4.95-3-11.55-3.3" clip-rule="evenodd"/>
  </g>
  <defs>
    <clipPath id="a">
      <rect width="48" height="48" fill="#fff" rx="24"/>
    </clipPath>
  </defs>
</svg>
