<svg width="12" height="12" viewBox="0 0 12 12" fill="#9f9aae" xmlns="http://www.w3.org/2000/svg">
  <g clip-path="url(#clip0_228_5058)">
    <path fill-rule="evenodd" clip-rule="evenodd"
      d="M4.56598 0.588963C4.01752 0.608355 3.62781 0.658599 2.93548 0.799155C2.55613 0.876171 2.40333 0.914211 2.28273 0.961695C1.63095 1.21831 1.10584 1.86583 0.869718 2.70409C0.812814 2.90613 0.776658 3.11482 0.726954 3.5281C0.603762 4.55257 0.577518 5.12914 0.583566 6.6781C0.587838 7.77186 0.617802 8.15469 0.762978 8.9701C0.83739 9.38811 0.880987 9.53903 0.996486 9.77861C1.08817 9.96877 1.13342 10.0437 1.25455 10.2061C1.58115 10.6439 2.05719 10.9702 2.57398 11.1104C2.73909 11.1553 2.89203 11.1815 3.38398 11.2493C4.30891 11.3769 4.80949 11.4134 5.63398 11.4137C6.49346 11.414 7.0136 11.3736 8.05798 11.2254C8.60443 11.1478 8.77191 11.1075 9.04798 10.9869C9.60465 10.7436 10.1015 10.2326 10.3319 9.66624C10.4176 9.45572 10.4713 9.23089 10.5495 8.75635L10.5649 8.66262L10.6815 8.60275C11.0345 8.42141 11.2791 8.11723 11.3762 7.73893C11.4124 7.59773 11.4238 7.41004 11.4238 6.9541C11.4238 6.36014 11.4088 6.22401 11.3191 6.00017C11.1972 5.69629 10.9532 5.4357 10.659 5.29503C10.6111 5.27215 10.572 5.25097 10.572 5.25097C10.572 5.221 10.4568 4.60543 10.436 4.5241C10.2797 3.91386 9.86033 3.35585 9.3109 3.02695C9.24681 2.98859 9.21759 2.96424 9.22105 2.9521C9.22387 2.9422 9.24055 2.89971 9.25813 2.85767C9.32047 2.70861 9.34983 2.56426 9.35681 2.37267C9.3643 2.16697 9.34904 2.02926 9.29974 1.85754C9.15532 1.35455 8.76904 0.959859 8.28631 0.822063C7.89801 0.711219 6.81443 0.615795 5.69998 0.594291C4.99899 0.580767 4.82129 0.579927 4.56598 0.588963ZM4.58998 1.71695C4.33173 1.72643 4.05116 1.75077 3.82798 1.78306C3.50545 1.82971 2.79722 1.97401 2.6854 2.01585C2.37238 2.13297 2.07381 2.55046 1.94458 3.05176C1.89807 3.23219 1.83479 3.70449 1.77627 4.3081C1.72667 4.81963 1.70696 5.54305 1.71157 6.68196C1.71572 7.70793 1.7387 8.0056 1.87202 8.7601C1.92551 9.06285 1.94909 9.15448 2.00571 9.27964C2.1452 9.58804 2.41574 9.84703 2.72969 9.97275C2.87657 10.0316 2.97845 10.0525 3.42466 10.1154C4.38751 10.2511 4.83604 10.2856 5.63998 10.2857C6.48323 10.2858 7.09269 10.234 8.14198 10.0731C8.52639 10.0141 8.7427 9.91392 8.98001 9.68487C9.19779 9.47464 9.31051 9.2598 9.37075 8.9401C9.38505 8.8642 9.39938 8.78994 9.40259 8.7751L9.40844 8.7481H9.09662C8.64747 8.7481 8.47294 8.71929 8.18381 8.59741C7.97138 8.50787 7.71458 8.3227 7.56327 8.14996C7.18287 7.71567 7.03087 7.14438 7.14609 6.5821C7.25075 6.07139 7.60607 5.60605 8.07553 5.36491C8.38917 5.20381 8.61363 5.1601 9.12725 5.1601C9.34744 5.1601 9.40798 5.15679 9.40798 5.14473C9.40798 5.10567 9.34427 4.79777 9.32177 4.7281C9.2908 4.63216 9.21579 4.48023 9.15589 4.3921C9.03794 4.21859 8.8309 4.04045 8.63504 3.94395C8.45211 3.85381 8.3018 3.81793 7.87798 3.76318C7.33714 3.69331 6.9764 3.67229 6.31675 3.67217C5.71205 3.67207 5.25028 3.69472 4.45798 3.7633C3.97306 3.80527 3.84537 3.8106 3.76697 3.79215C3.59389 3.75138 3.43751 3.61542 3.37001 3.44698C3.34683 3.38915 3.34237 3.35585 3.3422 3.23946C3.34198 3.10367 3.34289 3.09898 3.3862 3.01146C3.41051 2.96231 3.45083 2.89828 3.47579 2.86915C3.53175 2.80389 3.64459 2.72961 3.72328 2.70623C3.7981 2.68401 4.52183 2.62009 5.23198 2.57299C5.61487 2.54759 6.64457 2.53721 7.01398 2.55502C7.31943 2.56974 7.60046 2.59257 7.85017 2.62291C7.99807 2.64089 8.0037 2.64073 8.04952 2.61736C8.11232 2.58532 8.2 2.48604 8.21771 2.42693C8.23741 2.36121 8.23558 2.23656 8.21385 2.1634C8.17042 2.01715 8.06863 1.9254 7.91282 1.89208C7.6322 1.83205 7.11731 1.78336 6.37198 1.74637C6.05168 1.73047 5.83571 1.72469 5.08198 1.7118C4.94998 1.70953 4.72858 1.71186 4.58998 1.71695ZM8.7513 6.30579C8.64185 6.33022 8.51635 6.40107 8.43065 6.48677C8.08526 6.83217 8.21305 7.40385 8.6758 7.58347L8.75398 7.61382L9.30231 7.61763C9.7712 7.62088 9.85976 7.61872 9.91349 7.60276C9.95092 7.59165 10.022 7.5841 10.0893 7.5841C10.1998 7.5841 10.2031 7.58326 10.2364 7.54764C10.2924 7.48769 10.2977 7.42971 10.2936 6.91606C10.29 6.45485 10.2897 6.44961 10.2623 6.4019C10.2471 6.37538 10.2151 6.34027 10.1912 6.32389L10.1478 6.2941L9.48687 6.2916C8.95934 6.28961 8.81091 6.29248 8.7513 6.30579Z"
      fill="#9f9aae"></path>
  </g>
  <defs>
    <clipPath id="clip0_228_5058">
      <rect width="12" height="12" fill="white"></rect>
    </clipPath>
  </defs>
</svg>